<svg width="48" height="49" viewBox="0 0 48 49" fill="none" xmlns="http://www.w3.org/2000/svg">
<path opacity="0.01" fill-rule="evenodd" clip-rule="evenodd" d="M0 48.5V0.5H48V48.5H0Z" fill="white"/>
<path fill-rule="evenodd" clip-rule="evenodd" d="M30.6667 27.1583C29.8667 27.1583 28.6667 27.2912 28.6667 26.4937C28.6667 25.6962 29.8667 24.5 30.6667 24.5C31.4667 24.5 32 25.0317 32 25.8292C32 26.6267 31.4667 27.1583 30.6667 27.1583V27.1583ZM17.3333 27.1583C16.5333 27.1583 16 26.6266 16 25.8291C16 25.0316 16.5333 24.5 17.3333 24.5C18.1333 24.5 19.3333 25.6962 19.3333 26.4937C19.3333 27.2912 18.1333 27.1583 17.3333 27.1583V27.1583ZM19.4971 20.4237C19.8008 19.6646 20.5362 19.1667 21.3542 19.1667H26.6458C27.4637 19.1667 28.1992 19.6646 28.5029 20.4237L29.3333 22.5H18.6667L19.4971 20.4237ZM32.2775 22.6804L31.8092 21.5096L30.9787 19.4333C30.2658 17.6513 28.5654 16.5 26.6458 16.5H21.3542C19.435 16.5 17.7342 17.6513 17.0212 19.4333L16.1908 21.5096L15.7225 22.6804C14.7175 23.0625 14 24.0275 14 25.1667V27.1667C14 27.8383 14.2567 28.4446 14.6667 28.9138V31.1667C14.6667 31.9029 15.2637 32.5 16 32.5H17.3333C18.0696 32.5 18.6666 31.9029 18.6666 31.1667V29.8333H29.3333V31.1667C29.3333 31.9029 29.9304 32.5 30.6666 32.5H32C32.7362 32.5 33.3333 31.9029 33.3333 31.1667V28.9138C33.7433 28.445 34 27.8387 34 27.1667V25.1667C34 24.0275 33.2825 23.0625 32.2775 22.6804H32.2775Z" fill="#303189"/>
</svg>
