<svg width="48" height="48" viewBox="0 0 48 48" fill="none" xmlns="http://www.w3.org/2000/svg">
<path fill-rule="evenodd" clip-rule="evenodd" d="M8.00001 41V8H41V41H8.00001Z" fill="white"/>
<path fill-rule="evenodd" clip-rule="evenodd" d="M19 11V10H20V11H19Z" fill="#303189"/>
<path fill-rule="evenodd" clip-rule="evenodd" d="M20 11V10H21V11H20Z" fill="#303189"/>
<path fill-rule="evenodd" clip-rule="evenodd" d="M23 11V10H24V11H23Z" fill="#303189"/>
<path fill-rule="evenodd" clip-rule="evenodd" d="M24 11V10H25V11H24Z" fill="#303189"/>
<path fill-rule="evenodd" clip-rule="evenodd" d="M25 11V10H26V11H25Z" fill="#303189"/>
<path fill-rule="evenodd" clip-rule="evenodd" d="M28 11V10H29V11H28Z" fill="#303189"/>
<path fill-rule="evenodd" clip-rule="evenodd" d="M28.9999 11V10H29.9999V11H28.9999Z" fill="#303189"/>
<path fill-rule="evenodd" clip-rule="evenodd" d="M30 11V10H31V11H30Z" fill="#303189"/>
<path fill-rule="evenodd" clip-rule="evenodd" d="M19 12V11H20V12H19Z" fill="#303189"/>
<path fill-rule="evenodd" clip-rule="evenodd" d="M20 12V11H21V12H20Z" fill="#303189"/>
<path fill-rule="evenodd" clip-rule="evenodd" d="M23 12V11H24V12H23Z" fill="#303189"/>
<path fill-rule="evenodd" clip-rule="evenodd" d="M24 12V11H25V12H24Z" fill="#303189"/>
<path fill-rule="evenodd" clip-rule="evenodd" d="M25 12V11H26V12H25Z" fill="#303189"/>
<path fill-rule="evenodd" clip-rule="evenodd" d="M26 12V11H27V12H26Z" fill="#303189"/>
<path fill-rule="evenodd" clip-rule="evenodd" d="M28 12V11H29V12H28Z" fill="#303189"/>
<path fill-rule="evenodd" clip-rule="evenodd" d="M30 12V11H31V12H30Z" fill="#303189"/>
<path fill-rule="evenodd" clip-rule="evenodd" d="M18 13V12H19V13H18Z" fill="#303189"/>
<path fill-rule="evenodd" clip-rule="evenodd" d="M19 13V12H20V13H19Z" fill="#303189"/>
<path fill-rule="evenodd" clip-rule="evenodd" d="M20 13V12H21V13H20Z" fill="#303189"/>
<path fill-rule="evenodd" clip-rule="evenodd" d="M23 13V12H24V13H23Z" fill="#303189"/>
<path fill-rule="evenodd" clip-rule="evenodd" d="M25 13V12H26V13H25Z" fill="#303189"/>
<path fill-rule="evenodd" clip-rule="evenodd" d="M30 13V12H31V13H30Z" fill="#303189"/>
<path fill-rule="evenodd" clip-rule="evenodd" d="M18 14V13H19V14H18Z" fill="#303189"/>
<path fill-rule="evenodd" clip-rule="evenodd" d="M20 14V13H21V14H20Z" fill="#303189"/>
<path fill-rule="evenodd" clip-rule="evenodd" d="M22 14V13H23V14H22Z" fill="#303189"/>
<path fill-rule="evenodd" clip-rule="evenodd" d="M24 14V13H25V14H24Z" fill="#303189"/>
<path fill-rule="evenodd" clip-rule="evenodd" d="M25 14V13H26V14H25Z" fill="#303189"/>
<path fill-rule="evenodd" clip-rule="evenodd" d="M27 14V13H28V14H27Z" fill="#303189"/>
<path fill-rule="evenodd" clip-rule="evenodd" d="M28.9999 14V13H29.9999V14H28.9999Z" fill="#303189"/>
<path fill-rule="evenodd" clip-rule="evenodd" d="M18 15V14H19V15H18Z" fill="#303189"/>
<path fill-rule="evenodd" clip-rule="evenodd" d="M20 15V14H21V15H20Z" fill="#303189"/>
<path fill-rule="evenodd" clip-rule="evenodd" d="M22 15V14H23V15H22Z" fill="#303189"/>
<path fill-rule="evenodd" clip-rule="evenodd" d="M25 15V14H26V15H25Z" fill="#303189"/>
<path fill-rule="evenodd" clip-rule="evenodd" d="M26 15V14H27V15H26Z" fill="#303189"/>
<path fill-rule="evenodd" clip-rule="evenodd" d="M27 15V14H28V15H27Z" fill="#303189"/>
<path fill-rule="evenodd" clip-rule="evenodd" d="M28 15V14H29V15H28Z" fill="#303189"/>
<path fill-rule="evenodd" clip-rule="evenodd" d="M28.9999 15V14H29.9999V15H28.9999Z" fill="#303189"/>
<path fill-rule="evenodd" clip-rule="evenodd" d="M30 15V14H31V15H30Z" fill="#303189"/>
<path fill-rule="evenodd" clip-rule="evenodd" d="M18 16V15H19V16H18Z" fill="#303189"/>
<path fill-rule="evenodd" clip-rule="evenodd" d="M19 16V15H20V16H19Z" fill="#303189"/>
<path fill-rule="evenodd" clip-rule="evenodd" d="M20 16V15H21V16H20Z" fill="#303189"/>
<path fill-rule="evenodd" clip-rule="evenodd" d="M22 16V15H23V16H22Z" fill="#303189"/>
<path fill-rule="evenodd" clip-rule="evenodd" d="M30 16V15H31V16H30Z" fill="#303189"/>
<path fill-rule="evenodd" clip-rule="evenodd" d="M18 17V16H19V17H18Z" fill="#303189"/>
<path fill-rule="evenodd" clip-rule="evenodd" d="M20 17V16H21V17H20Z" fill="#303189"/>
<path fill-rule="evenodd" clip-rule="evenodd" d="M22 17V16H23V17H22Z" fill="#303189"/>
<path fill-rule="evenodd" clip-rule="evenodd" d="M24 17V16H25V17H24Z" fill="#303189"/>
<path fill-rule="evenodd" clip-rule="evenodd" d="M26 17V16H27V17H26Z" fill="#303189"/>
<path fill-rule="evenodd" clip-rule="evenodd" d="M28 17V16H29V17H28Z" fill="#303189"/>
<path fill-rule="evenodd" clip-rule="evenodd" d="M30 17V16H31V17H30Z" fill="#303189"/>
<path fill-rule="evenodd" clip-rule="evenodd" d="M18 18V17H19V18H18Z" fill="#303189"/>
<path fill-rule="evenodd" clip-rule="evenodd" d="M19 18V17H20V18H19Z" fill="#303189"/>
<path fill-rule="evenodd" clip-rule="evenodd" d="M21 18V17H22V18H21Z" fill="#303189"/>
<path fill-rule="evenodd" clip-rule="evenodd" d="M22 18V17H23V18H22Z" fill="#303189"/>
<path fill-rule="evenodd" clip-rule="evenodd" d="M24 18V17H25V18H24Z" fill="#303189"/>
<path fill-rule="evenodd" clip-rule="evenodd" d="M26 18V17H27V18H26Z" fill="#303189"/>
<path fill-rule="evenodd" clip-rule="evenodd" d="M28 18V17H29V18H28Z" fill="#303189"/>
<path fill-rule="evenodd" clip-rule="evenodd" d="M30 18V17H31V18H30Z" fill="#303189"/>
<path fill-rule="evenodd" clip-rule="evenodd" d="M9.99996 19V18H11V19H9.99996Z" fill="#303189"/>
<path fill-rule="evenodd" clip-rule="evenodd" d="M12 19V18H13V19H12Z" fill="#303189"/>
<path fill-rule="evenodd" clip-rule="evenodd" d="M13 19V18H14V19H13Z" fill="#303189"/>
<path fill-rule="evenodd" clip-rule="evenodd" d="M14 19V18H15V19H14Z" fill="#303189"/>
<path fill-rule="evenodd" clip-rule="evenodd" d="M15 19V18H16V19H15Z" fill="#303189"/>
<path fill-rule="evenodd" clip-rule="evenodd" d="M16 19V18H17V19H16Z" fill="#303189"/>
<path fill-rule="evenodd" clip-rule="evenodd" d="M20 19V18H21V19H20Z" fill="#303189"/>
<path fill-rule="evenodd" clip-rule="evenodd" d="M26 19V18H27V19H26Z" fill="#303189"/>
<path fill-rule="evenodd" clip-rule="evenodd" d="M27 19V18H28V19H27Z" fill="#303189"/>
<path fill-rule="evenodd" clip-rule="evenodd" d="M32 19V18H33V19H32Z" fill="#303189"/>
<path fill-rule="evenodd" clip-rule="evenodd" d="M33 19V18H34V19H33Z" fill="#303189"/>
<path fill-rule="evenodd" clip-rule="evenodd" d="M34 19V18H35V19H34Z" fill="#303189"/>
<path fill-rule="evenodd" clip-rule="evenodd" d="M35 19V18H36V19H35Z" fill="#303189"/>
<path fill-rule="evenodd" clip-rule="evenodd" d="M36 19V18H37V19H36Z" fill="#303189"/>
<path fill-rule="evenodd" clip-rule="evenodd" d="M9.99996 20V19H11V20H9.99996Z" fill="#303189"/>
<path fill-rule="evenodd" clip-rule="evenodd" d="M12 20V19H13V20H12Z" fill="#303189"/>
<path fill-rule="evenodd" clip-rule="evenodd" d="M13 20V19H14V20H13Z" fill="#303189"/>
<path fill-rule="evenodd" clip-rule="evenodd" d="M15 20V19H16V20H15Z" fill="#303189"/>
<path fill-rule="evenodd" clip-rule="evenodd" d="M23 20V19H24V20H23Z" fill="#303189"/>
<path fill-rule="evenodd" clip-rule="evenodd" d="M24 20V19H25V20H24Z" fill="#303189"/>
<path fill-rule="evenodd" clip-rule="evenodd" d="M25 20V19H26V20H25Z" fill="#303189"/>
<path fill-rule="evenodd" clip-rule="evenodd" d="M27 20V19H28V20H27Z" fill="#303189"/>
<path fill-rule="evenodd" clip-rule="evenodd" d="M28 20V19H29V20H28Z" fill="#303189"/>
<path fill-rule="evenodd" clip-rule="evenodd" d="M28.9999 20V19H29.9999V20H28.9999Z" fill="#303189"/>
<path fill-rule="evenodd" clip-rule="evenodd" d="M30 20V19H31V20H30Z" fill="#303189"/>
<path fill-rule="evenodd" clip-rule="evenodd" d="M31 20V19H32V20H31Z" fill="#303189"/>
<path fill-rule="evenodd" clip-rule="evenodd" d="M32 20V19H33V20H32Z" fill="#303189"/>
<path fill-rule="evenodd" clip-rule="evenodd" d="M33 20V19H34V20H33Z" fill="#303189"/>
<path fill-rule="evenodd" clip-rule="evenodd" d="M34 20V19H35V20H34Z" fill="#303189"/>
<path fill-rule="evenodd" clip-rule="evenodd" d="M38 20V19H39V20H38Z" fill="#303189"/>
<path fill-rule="evenodd" clip-rule="evenodd" d="M9.99996 21V20H11V21H9.99996Z" fill="#303189"/>
<path fill-rule="evenodd" clip-rule="evenodd" d="M12 21V20H13V21H12Z" fill="#303189"/>
<path fill-rule="evenodd" clip-rule="evenodd" d="M14 21V20H15V21H14Z" fill="#303189"/>
<path fill-rule="evenodd" clip-rule="evenodd" d="M15 21V20H16V21H15Z" fill="#303189"/>
<path fill-rule="evenodd" clip-rule="evenodd" d="M16 21V20H17V21H16Z" fill="#303189"/>
<path fill-rule="evenodd" clip-rule="evenodd" d="M18 21V20H19V21H18Z" fill="#303189"/>
<path fill-rule="evenodd" clip-rule="evenodd" d="M20 21V20H21V21H20Z" fill="#303189"/>
<path fill-rule="evenodd" clip-rule="evenodd" d="M21 21V20H22V21H21Z" fill="#303189"/>
<path fill-rule="evenodd" clip-rule="evenodd" d="M23 21V20H24V21H23Z" fill="#303189"/>
<path fill-rule="evenodd" clip-rule="evenodd" d="M24 21V20H25V21H24Z" fill="#303189"/>
<path fill-rule="evenodd" clip-rule="evenodd" d="M25 21V20H26V21H25Z" fill="#303189"/>
<path fill-rule="evenodd" clip-rule="evenodd" d="M26 21V20H27V21H26Z" fill="#303189"/>
<path fill-rule="evenodd" clip-rule="evenodd" d="M30 21V20H31V21H30Z" fill="#303189"/>
<path fill-rule="evenodd" clip-rule="evenodd" d="M31 21V20H32V21H31Z" fill="#303189"/>
<path fill-rule="evenodd" clip-rule="evenodd" d="M11 22V21H12V22H11Z" fill="#303189"/>
<path fill-rule="evenodd" clip-rule="evenodd" d="M12 22V21H13V22H12Z" fill="#303189"/>
<path fill-rule="evenodd" clip-rule="evenodd" d="M13 22V21H14V22H13Z" fill="#303189"/>
<path fill-rule="evenodd" clip-rule="evenodd" d="M15 22V21H16V22H15Z" fill="#303189"/>
<path fill-rule="evenodd" clip-rule="evenodd" d="M17 22V21H18V22H17Z" fill="#303189"/>
<path fill-rule="evenodd" clip-rule="evenodd" d="M18 22V21H19V22H18Z" fill="#303189"/>
<path fill-rule="evenodd" clip-rule="evenodd" d="M21 22V21H22V22H21Z" fill="#303189"/>
<path fill-rule="evenodd" clip-rule="evenodd" d="M23 22V21H24V22H23Z" fill="#303189"/>
<path fill-rule="evenodd" clip-rule="evenodd" d="M25 22V21H26V22H25Z" fill="#303189"/>
<path fill-rule="evenodd" clip-rule="evenodd" d="M28 22V21H29V22H28Z" fill="#303189"/>
<path fill-rule="evenodd" clip-rule="evenodd" d="M28.9999 22V21H29.9999V22H28.9999Z" fill="#303189"/>
<path fill-rule="evenodd" clip-rule="evenodd" d="M33 22V21H34V22H33Z" fill="#303189"/>
<path fill-rule="evenodd" clip-rule="evenodd" d="M35 22V21H36V22H35Z" fill="#303189"/>
<path fill-rule="evenodd" clip-rule="evenodd" d="M37 22V21H38V22H37Z" fill="#303189"/>
<path fill-rule="evenodd" clip-rule="evenodd" d="M11 23V22H12V23H11Z" fill="#303189"/>
<path fill-rule="evenodd" clip-rule="evenodd" d="M12 23V22H13V23H12Z" fill="#303189"/>
<path fill-rule="evenodd" clip-rule="evenodd" d="M13 23V22H14V23H13Z" fill="#303189"/>
<path fill-rule="evenodd" clip-rule="evenodd" d="M16 23V22H17V23H16Z" fill="#303189"/>
<path fill-rule="evenodd" clip-rule="evenodd" d="M19 23V22H20V23H19Z" fill="#303189"/>
<path fill-rule="evenodd" clip-rule="evenodd" d="M22 23V22H23V23H22Z" fill="#303189"/>
<path fill-rule="evenodd" clip-rule="evenodd" d="M24 23V22H25V23H24Z" fill="#303189"/>
<path fill-rule="evenodd" clip-rule="evenodd" d="M25 23V22H26V23H25Z" fill="#303189"/>
<path fill-rule="evenodd" clip-rule="evenodd" d="M27 23V22H28V23H27Z" fill="#303189"/>
<path fill-rule="evenodd" clip-rule="evenodd" d="M28 23V22H29V23H28Z" fill="#303189"/>
<path fill-rule="evenodd" clip-rule="evenodd" d="M35 23V22H36V23H35Z" fill="#303189"/>
<path fill-rule="evenodd" clip-rule="evenodd" d="M36 23V22H37V23H36Z" fill="#303189"/>
<path fill-rule="evenodd" clip-rule="evenodd" d="M9.99996 24V23H11V24H9.99996Z" fill="#303189"/>
<path fill-rule="evenodd" clip-rule="evenodd" d="M13 24V23H14V24H13Z" fill="#303189"/>
<path fill-rule="evenodd" clip-rule="evenodd" d="M14 24V23H15V24H14Z" fill="#303189"/>
<path fill-rule="evenodd" clip-rule="evenodd" d="M15 24V23H16V24H15Z" fill="#303189"/>
<path fill-rule="evenodd" clip-rule="evenodd" d="M17 24V23H18V24H17Z" fill="#303189"/>
<path fill-rule="evenodd" clip-rule="evenodd" d="M18 24V23H19V24H18Z" fill="#303189"/>
<path fill-rule="evenodd" clip-rule="evenodd" d="M20 24V23H21V24H20Z" fill="#303189"/>
<path fill-rule="evenodd" clip-rule="evenodd" d="M25 24V23H26V24H25Z" fill="#303189"/>
<path fill-rule="evenodd" clip-rule="evenodd" d="M26 24V23H27V24H26Z" fill="#303189"/>
<path fill-rule="evenodd" clip-rule="evenodd" d="M27 24V23H28V24H27Z" fill="#303189"/>
<path fill-rule="evenodd" clip-rule="evenodd" d="M28 24V23H29V24H28Z" fill="#303189"/>
<path fill-rule="evenodd" clip-rule="evenodd" d="M28.9999 24V23H29.9999V24H28.9999Z" fill="#303189"/>
<path fill-rule="evenodd" clip-rule="evenodd" d="M30 24V23H31V24H30Z" fill="#303189"/>
<path fill-rule="evenodd" clip-rule="evenodd" d="M31 24V23H32V24H31Z" fill="#303189"/>
<path fill-rule="evenodd" clip-rule="evenodd" d="M32 24V23H33V24H32Z" fill="#303189"/>
<path fill-rule="evenodd" clip-rule="evenodd" d="M34 24V23H35V24H34Z" fill="#303189"/>
<path fill-rule="evenodd" clip-rule="evenodd" d="M38 24V23H39V24H38Z" fill="#303189"/>
<path fill-rule="evenodd" clip-rule="evenodd" d="M9.99996 25V24H11V25H9.99996Z" fill="#303189"/>
<path fill-rule="evenodd" clip-rule="evenodd" d="M13 25V24H14V25H13Z" fill="#303189"/>
<path fill-rule="evenodd" clip-rule="evenodd" d="M14 25V24H15V25H14Z" fill="#303189"/>
<path fill-rule="evenodd" clip-rule="evenodd" d="M16 25V24H17V25H16Z" fill="#303189"/>
<path fill-rule="evenodd" clip-rule="evenodd" d="M18 25V24H19V25H18Z" fill="#303189"/>
<path fill-rule="evenodd" clip-rule="evenodd" d="M19 25V24H20V25H19Z" fill="#303189"/>
<path fill-rule="evenodd" clip-rule="evenodd" d="M20 25V24H21V25H20Z" fill="#303189"/>
<path fill-rule="evenodd" clip-rule="evenodd" d="M21 25V24H22V25H21Z" fill="#303189"/>
<path fill-rule="evenodd" clip-rule="evenodd" d="M27 25V24H28V25H27Z" fill="#303189"/>
<path fill-rule="evenodd" clip-rule="evenodd" d="M30 25V24H31V25H30Z" fill="#303189"/>
<path fill-rule="evenodd" clip-rule="evenodd" d="M32 25V24H33V25H32Z" fill="#303189"/>
<path fill-rule="evenodd" clip-rule="evenodd" d="M33 25V24H34V25H33Z" fill="#303189"/>
<path fill-rule="evenodd" clip-rule="evenodd" d="M35 25V24H36V25H35Z" fill="#303189"/>
<path fill-rule="evenodd" clip-rule="evenodd" d="M36 25V24H37V25H36Z" fill="#303189"/>
<path fill-rule="evenodd" clip-rule="evenodd" d="M9.99996 26V25H11V26H9.99996Z" fill="#303189"/>
<path fill-rule="evenodd" clip-rule="evenodd" d="M12 26V25H13V26H12Z" fill="#303189"/>
<path fill-rule="evenodd" clip-rule="evenodd" d="M14 26V25H15V26H14Z" fill="#303189"/>
<path fill-rule="evenodd" clip-rule="evenodd" d="M17 26V25H18V26H17Z" fill="#303189"/>
<path fill-rule="evenodd" clip-rule="evenodd" d="M20 26V25H21V26H20Z" fill="#303189"/>
<path fill-rule="evenodd" clip-rule="evenodd" d="M21 26V25H22V26H21Z" fill="#303189"/>
<path fill-rule="evenodd" clip-rule="evenodd" d="M24 26V25H25V26H24Z" fill="#303189"/>
<path fill-rule="evenodd" clip-rule="evenodd" d="M26 26V25H27V26H26Z" fill="#303189"/>
<path fill-rule="evenodd" clip-rule="evenodd" d="M28 26V25H29V26H28Z" fill="#303189"/>
<path fill-rule="evenodd" clip-rule="evenodd" d="M31 26V25H32V26H31Z" fill="#303189"/>
<path fill-rule="evenodd" clip-rule="evenodd" d="M32 26V25H33V26H32Z" fill="#303189"/>
<path fill-rule="evenodd" clip-rule="evenodd" d="M33 26V25H34V26H33Z" fill="#303189"/>
<path fill-rule="evenodd" clip-rule="evenodd" d="M34 26V25H35V26H34Z" fill="#303189"/>
<path fill-rule="evenodd" clip-rule="evenodd" d="M37 26V25H38V26H37Z" fill="#303189"/>
<path fill-rule="evenodd" clip-rule="evenodd" d="M11 27V26H12V27H11Z" fill="#303189"/>
<path fill-rule="evenodd" clip-rule="evenodd" d="M16 27V26H17V27H16Z" fill="#303189"/>
<path fill-rule="evenodd" clip-rule="evenodd" d="M19 27V26H20V27H19Z" fill="#303189"/>
<path fill-rule="evenodd" clip-rule="evenodd" d="M20 27V26H21V27H20Z" fill="#303189"/>
<path fill-rule="evenodd" clip-rule="evenodd" d="M21 27V26H22V27H21Z" fill="#303189"/>
<path fill-rule="evenodd" clip-rule="evenodd" d="M22 27V26H23V27H22Z" fill="#303189"/>
<path fill-rule="evenodd" clip-rule="evenodd" d="M26 27V26H27V27H26Z" fill="#303189"/>
<path fill-rule="evenodd" clip-rule="evenodd" d="M27 27V26H28V27H27Z" fill="#303189"/>
<path fill-rule="evenodd" clip-rule="evenodd" d="M33 27V26H34V27H33Z" fill="#303189"/>
<path fill-rule="evenodd" clip-rule="evenodd" d="M35 27V26H36V27H35Z" fill="#303189"/>
<path fill-rule="evenodd" clip-rule="evenodd" d="M36 27V26H37V27H36Z" fill="#303189"/>
<path fill-rule="evenodd" clip-rule="evenodd" d="M9.99996 28V27H11V28H9.99996Z" fill="#303189"/>
<path fill-rule="evenodd" clip-rule="evenodd" d="M11 28V27H12V28H11Z" fill="#303189"/>
<path fill-rule="evenodd" clip-rule="evenodd" d="M12 28V27H13V28H12Z" fill="#303189"/>
<path fill-rule="evenodd" clip-rule="evenodd" d="M13 28V27H14V28H13Z" fill="#303189"/>
<path fill-rule="evenodd" clip-rule="evenodd" d="M14 28V27H15V28H14Z" fill="#303189"/>
<path fill-rule="evenodd" clip-rule="evenodd" d="M15 28V27H16V28H15Z" fill="#303189"/>
<path fill-rule="evenodd" clip-rule="evenodd" d="M19 28V27H20V28H19Z" fill="#303189"/>
<path fill-rule="evenodd" clip-rule="evenodd" d="M21 28V27H22V28H21Z" fill="#303189"/>
<path fill-rule="evenodd" clip-rule="evenodd" d="M23 28V27H24V28H23Z" fill="#303189"/>
<path fill-rule="evenodd" clip-rule="evenodd" d="M24 28V27H25V28H24Z" fill="#303189"/>
<path fill-rule="evenodd" clip-rule="evenodd" d="M25 28V27H26V28H25Z" fill="#303189"/>
<path fill-rule="evenodd" clip-rule="evenodd" d="M28 28V27H29V28H28Z" fill="#303189"/>
<path fill-rule="evenodd" clip-rule="evenodd" d="M28.9999 28V27H29.9999V28H28.9999Z" fill="#303189"/>
<path fill-rule="evenodd" clip-rule="evenodd" d="M30 28V27H31V28H30Z" fill="#303189"/>
<path fill-rule="evenodd" clip-rule="evenodd" d="M31 28V27H32V28H31Z" fill="#303189"/>
<path fill-rule="evenodd" clip-rule="evenodd" d="M32 28V27H33V28H32Z" fill="#303189"/>
<path fill-rule="evenodd" clip-rule="evenodd" d="M33 28V27H34V28H33Z" fill="#303189"/>
<path fill-rule="evenodd" clip-rule="evenodd" d="M34 28V27H35V28H34Z" fill="#303189"/>
<path fill-rule="evenodd" clip-rule="evenodd" d="M36 28V27H37V28H36Z" fill="#303189"/>
<path fill-rule="evenodd" clip-rule="evenodd" d="M38 28V27H39V28H38Z" fill="#303189"/>
<path fill-rule="evenodd" clip-rule="evenodd" d="M9.99996 29V28H11V29H9.99996Z" fill="#303189"/>
<path fill-rule="evenodd" clip-rule="evenodd" d="M15 29V28H16V29H15Z" fill="#303189"/>
<path fill-rule="evenodd" clip-rule="evenodd" d="M16 29V28H17V29H16Z" fill="#303189"/>
<path fill-rule="evenodd" clip-rule="evenodd" d="M17 29V28H18V29H17Z" fill="#303189"/>
<path fill-rule="evenodd" clip-rule="evenodd" d="M21 29V28H22V29H21Z" fill="#303189"/>
<path fill-rule="evenodd" clip-rule="evenodd" d="M23 29V28H24V29H23Z" fill="#303189"/>
<path fill-rule="evenodd" clip-rule="evenodd" d="M24 29V28H25V29H24Z" fill="#303189"/>
<path fill-rule="evenodd" clip-rule="evenodd" d="M25 29V28H26V29H25Z" fill="#303189"/>
<path fill-rule="evenodd" clip-rule="evenodd" d="M26 29V28H27V29H26Z" fill="#303189"/>
<path fill-rule="evenodd" clip-rule="evenodd" d="M27 29V28H28V29H27Z" fill="#303189"/>
<path fill-rule="evenodd" clip-rule="evenodd" d="M28 29V28H29V29H28Z" fill="#303189"/>
<path fill-rule="evenodd" clip-rule="evenodd" d="M33 29V28H34V29H33Z" fill="#303189"/>
<path fill-rule="evenodd" clip-rule="evenodd" d="M36 29V28H37V29H36Z" fill="#303189"/>
<path fill-rule="evenodd" clip-rule="evenodd" d="M9.99996 30V29H11V30H9.99996Z" fill="#303189"/>
<path fill-rule="evenodd" clip-rule="evenodd" d="M12 30V29H13V30H12Z" fill="#303189"/>
<path fill-rule="evenodd" clip-rule="evenodd" d="M13 30V29H14V30H13Z" fill="#303189"/>
<path fill-rule="evenodd" clip-rule="evenodd" d="M14 30V29H15V30H14Z" fill="#303189"/>
<path fill-rule="evenodd" clip-rule="evenodd" d="M18 30V29H19V30H18Z" fill="#303189"/>
<path fill-rule="evenodd" clip-rule="evenodd" d="M23 30V29H24V30H23Z" fill="#303189"/>
<path fill-rule="evenodd" clip-rule="evenodd" d="M25 30V29H26V30H25Z" fill="#303189"/>
<path fill-rule="evenodd" clip-rule="evenodd" d="M30 30V29H31V30H30Z" fill="#303189"/>
<path fill-rule="evenodd" clip-rule="evenodd" d="M31 30V29H32V30H31Z" fill="#303189"/>
<path fill-rule="evenodd" clip-rule="evenodd" d="M32 30V29H33V30H32Z" fill="#303189"/>
<path fill-rule="evenodd" clip-rule="evenodd" d="M33 30V29H34V30H33Z" fill="#303189"/>
<path fill-rule="evenodd" clip-rule="evenodd" d="M34 30V29H35V30H34Z" fill="#303189"/>
<path fill-rule="evenodd" clip-rule="evenodd" d="M37 30V29H38V30H37Z" fill="#303189"/>
<path fill-rule="evenodd" clip-rule="evenodd" d="M9.99996 31V30H11V31H9.99996Z" fill="#303189"/>
<path fill-rule="evenodd" clip-rule="evenodd" d="M12 31V30H13V31H12Z" fill="#303189"/>
<path fill-rule="evenodd" clip-rule="evenodd" d="M13 31V30H14V31H13Z" fill="#303189"/>
<path fill-rule="evenodd" clip-rule="evenodd" d="M15 31V30H16V31H15Z" fill="#303189"/>
<path fill-rule="evenodd" clip-rule="evenodd" d="M16 31V30H17V31H16Z" fill="#303189"/>
<path fill-rule="evenodd" clip-rule="evenodd" d="M18 31V30H19V31H18Z" fill="#303189"/>
<path fill-rule="evenodd" clip-rule="evenodd" d="M19 31V30H20V31H19Z" fill="#303189"/>
<path fill-rule="evenodd" clip-rule="evenodd" d="M20 31V30H21V31H20Z" fill="#303189"/>
<path fill-rule="evenodd" clip-rule="evenodd" d="M21 31V30H22V31H21Z" fill="#303189"/>
<path fill-rule="evenodd" clip-rule="evenodd" d="M24 31V30H25V31H24Z" fill="#303189"/>
<path fill-rule="evenodd" clip-rule="evenodd" d="M25 31V30H26V31H25Z" fill="#303189"/>
<path fill-rule="evenodd" clip-rule="evenodd" d="M27 31V30H28V31H27Z" fill="#303189"/>
<path fill-rule="evenodd" clip-rule="evenodd" d="M28.9999 31V30H29.9999V31H28.9999Z" fill="#303189"/>
<path fill-rule="evenodd" clip-rule="evenodd" d="M30 31V30H31V31H30Z" fill="#303189"/>
<path fill-rule="evenodd" clip-rule="evenodd" d="M31 31V30H32V31H31Z" fill="#303189"/>
<path fill-rule="evenodd" clip-rule="evenodd" d="M32 31V30H33V31H32Z" fill="#303189"/>
<path fill-rule="evenodd" clip-rule="evenodd" d="M33 31V30H34V31H33Z" fill="#303189"/>
<path fill-rule="evenodd" clip-rule="evenodd" d="M34 31V30H35V31H34Z" fill="#303189"/>
<path fill-rule="evenodd" clip-rule="evenodd" d="M36 31V30H37V31H36Z" fill="#303189"/>
<path fill-rule="evenodd" clip-rule="evenodd" d="M37 31V30H38V31H37Z" fill="#303189"/>
<path fill-rule="evenodd" clip-rule="evenodd" d="M38 31V30H39V31H38Z" fill="#303189"/>
<path fill-rule="evenodd" clip-rule="evenodd" d="M18 32V31H19V32H18Z" fill="#303189"/>
<path fill-rule="evenodd" clip-rule="evenodd" d="M19 32V31H20V32H19Z" fill="#303189"/>
<path fill-rule="evenodd" clip-rule="evenodd" d="M22 32V31H23V32H22Z" fill="#303189"/>
<path fill-rule="evenodd" clip-rule="evenodd" d="M25 32V31H26V32H25Z" fill="#303189"/>
<path fill-rule="evenodd" clip-rule="evenodd" d="M26 32V31H27V32H26Z" fill="#303189"/>
<path fill-rule="evenodd" clip-rule="evenodd" d="M27 32V31H28V32H27Z" fill="#303189"/>
<path fill-rule="evenodd" clip-rule="evenodd" d="M28 32V31H29V32H28Z" fill="#303189"/>
<path fill-rule="evenodd" clip-rule="evenodd" d="M30 32V31H31V32H30Z" fill="#303189"/>
<path fill-rule="evenodd" clip-rule="evenodd" d="M34 32V31H35V32H34Z" fill="#303189"/>
<path fill-rule="evenodd" clip-rule="evenodd" d="M35 32V31H36V32H35Z" fill="#303189"/>
<path fill-rule="evenodd" clip-rule="evenodd" d="M36 32V31H37V32H36Z" fill="#303189"/>
<path fill-rule="evenodd" clip-rule="evenodd" d="M37 32V31H38V32H37Z" fill="#303189"/>
<path fill-rule="evenodd" clip-rule="evenodd" d="M38 32V31H39V32H38Z" fill="#303189"/>
<path fill-rule="evenodd" clip-rule="evenodd" d="M20 33V32H21V33H20Z" fill="#303189"/>
<path fill-rule="evenodd" clip-rule="evenodd" d="M22 33V32H23V33H22Z" fill="#303189"/>
<path fill-rule="evenodd" clip-rule="evenodd" d="M27 33V32H28V33H27Z" fill="#303189"/>
<path fill-rule="evenodd" clip-rule="evenodd" d="M28.9999 33V32H29.9999V33H28.9999Z" fill="#303189"/>
<path fill-rule="evenodd" clip-rule="evenodd" d="M30 33V32H31V33H30Z" fill="#303189"/>
<path fill-rule="evenodd" clip-rule="evenodd" d="M32 33V32H33V33H32Z" fill="#303189"/>
<path fill-rule="evenodd" clip-rule="evenodd" d="M34 33V32H35V33H34Z" fill="#303189"/>
<path fill-rule="evenodd" clip-rule="evenodd" d="M35 33V32H36V33H35Z" fill="#303189"/>
<path fill-rule="evenodd" clip-rule="evenodd" d="M36 33V32H37V33H36Z" fill="#303189"/>
<path fill-rule="evenodd" clip-rule="evenodd" d="M18 34V33H19V34H18Z" fill="#303189"/>
<path fill-rule="evenodd" clip-rule="evenodd" d="M20 34V33H21V34H20Z" fill="#303189"/>
<path fill-rule="evenodd" clip-rule="evenodd" d="M22 34V33H23V34H22Z" fill="#303189"/>
<path fill-rule="evenodd" clip-rule="evenodd" d="M24 34V33H25V34H24Z" fill="#303189"/>
<path fill-rule="evenodd" clip-rule="evenodd" d="M26 34V33H27V34H26Z" fill="#303189"/>
<path fill-rule="evenodd" clip-rule="evenodd" d="M28.9999 34V33H29.9999V34H28.9999Z" fill="#303189"/>
<path fill-rule="evenodd" clip-rule="evenodd" d="M30 34V33H31V34H30Z" fill="#303189"/>
<path fill-rule="evenodd" clip-rule="evenodd" d="M34 34V33H35V34H34Z" fill="#303189"/>
<path fill-rule="evenodd" clip-rule="evenodd" d="M37 34V33H38V34H37Z" fill="#303189"/>
<path fill-rule="evenodd" clip-rule="evenodd" d="M38 34V33H39V34H38Z" fill="#303189"/>
<path fill-rule="evenodd" clip-rule="evenodd" d="M18 35V34H19V35H18Z" fill="#303189"/>
<path fill-rule="evenodd" clip-rule="evenodd" d="M20 35V34H21V35H20Z" fill="#303189"/>
<path fill-rule="evenodd" clip-rule="evenodd" d="M27 35V34H28V35H27Z" fill="#303189"/>
<path fill-rule="evenodd" clip-rule="evenodd" d="M30 35V34H31V35H30Z" fill="#303189"/>
<path fill-rule="evenodd" clip-rule="evenodd" d="M31 35V34H32V35H31Z" fill="#303189"/>
<path fill-rule="evenodd" clip-rule="evenodd" d="M32 35V34H33V35H32Z" fill="#303189"/>
<path fill-rule="evenodd" clip-rule="evenodd" d="M33 35V34H34V35H33Z" fill="#303189"/>
<path fill-rule="evenodd" clip-rule="evenodd" d="M34 35V34H35V35H34Z" fill="#303189"/>
<path fill-rule="evenodd" clip-rule="evenodd" d="M36 35V34H37V35H36Z" fill="#303189"/>
<path fill-rule="evenodd" clip-rule="evenodd" d="M38 35V34H39V35H38Z" fill="#303189"/>
<path fill-rule="evenodd" clip-rule="evenodd" d="M18 36V35H19V36H18Z" fill="#303189"/>
<path fill-rule="evenodd" clip-rule="evenodd" d="M22 36V35H23V36H22Z" fill="#303189"/>
<path fill-rule="evenodd" clip-rule="evenodd" d="M23 36V35H24V36H23Z" fill="#303189"/>
<path fill-rule="evenodd" clip-rule="evenodd" d="M24 36V35H25V36H24Z" fill="#303189"/>
<path fill-rule="evenodd" clip-rule="evenodd" d="M25 36V35H26V36H25Z" fill="#303189"/>
<path fill-rule="evenodd" clip-rule="evenodd" d="M27 36V35H28V36H27Z" fill="#303189"/>
<path fill-rule="evenodd" clip-rule="evenodd" d="M28 36V35H29V36H28Z" fill="#303189"/>
<path fill-rule="evenodd" clip-rule="evenodd" d="M33 36V35H34V36H33Z" fill="#303189"/>
<path fill-rule="evenodd" clip-rule="evenodd" d="M35 36V35H36V36H35Z" fill="#303189"/>
<path fill-rule="evenodd" clip-rule="evenodd" d="M36 36V35H37V36H36Z" fill="#303189"/>
<path fill-rule="evenodd" clip-rule="evenodd" d="M18 37V36H19V37H18Z" fill="#303189"/>
<path fill-rule="evenodd" clip-rule="evenodd" d="M19 37V36H20V37H19Z" fill="#303189"/>
<path fill-rule="evenodd" clip-rule="evenodd" d="M20 37V36H21V37H20Z" fill="#303189"/>
<path fill-rule="evenodd" clip-rule="evenodd" d="M22 37V36H23V37H22Z" fill="#303189"/>
<path fill-rule="evenodd" clip-rule="evenodd" d="M24 37V36H25V37H24Z" fill="#303189"/>
<path fill-rule="evenodd" clip-rule="evenodd" d="M25 37V36H26V37H25Z" fill="#303189"/>
<path fill-rule="evenodd" clip-rule="evenodd" d="M26 37V36H27V37H26Z" fill="#303189"/>
<path fill-rule="evenodd" clip-rule="evenodd" d="M31 37V36H32V37H31Z" fill="#303189"/>
<path fill-rule="evenodd" clip-rule="evenodd" d="M32 37V36H33V37H32Z" fill="#303189"/>
<path fill-rule="evenodd" clip-rule="evenodd" d="M33 37V36H34V37H33Z" fill="#303189"/>
<path fill-rule="evenodd" clip-rule="evenodd" d="M34 37V36H35V37H34Z" fill="#303189"/>
<path fill-rule="evenodd" clip-rule="evenodd" d="M35 37V36H36V37H35Z" fill="#303189"/>
<path fill-rule="evenodd" clip-rule="evenodd" d="M36 37V36H37V37H36Z" fill="#303189"/>
<path fill-rule="evenodd" clip-rule="evenodd" d="M37 37V36H38V37H37Z" fill="#303189"/>
<path fill-rule="evenodd" clip-rule="evenodd" d="M19 38V37H20V38H19Z" fill="#303189"/>
<path fill-rule="evenodd" clip-rule="evenodd" d="M20 38V37H21V38H20Z" fill="#303189"/>
<path fill-rule="evenodd" clip-rule="evenodd" d="M21 38V37H22V38H21Z" fill="#303189"/>
<path fill-rule="evenodd" clip-rule="evenodd" d="M24 38V37H25V38H24Z" fill="#303189"/>
<path fill-rule="evenodd" clip-rule="evenodd" d="M26 38V37H27V38H26Z" fill="#303189"/>
<path fill-rule="evenodd" clip-rule="evenodd" d="M28.9999 38V37H29.9999V38H28.9999Z" fill="#303189"/>
<path fill-rule="evenodd" clip-rule="evenodd" d="M30 38V37H31V38H30Z" fill="#303189"/>
<path fill-rule="evenodd" clip-rule="evenodd" d="M31 38V37H32V38H31Z" fill="#303189"/>
<path fill-rule="evenodd" clip-rule="evenodd" d="M33 38V37H34V38H33Z" fill="#303189"/>
<path fill-rule="evenodd" clip-rule="evenodd" d="M35 38V37H36V38H35Z" fill="#303189"/>
<path fill-rule="evenodd" clip-rule="evenodd" d="M37 38V37H38V38H37Z" fill="#303189"/>
<path fill-rule="evenodd" clip-rule="evenodd" d="M18 39V38H19V39H18Z" fill="#303189"/>
<path fill-rule="evenodd" clip-rule="evenodd" d="M20 39V38H21V39H20Z" fill="#303189"/>
<path fill-rule="evenodd" clip-rule="evenodd" d="M22 39V38H23V39H22Z" fill="#303189"/>
<path fill-rule="evenodd" clip-rule="evenodd" d="M27 39V38H28V39H27Z" fill="#303189"/>
<path fill-rule="evenodd" clip-rule="evenodd" d="M28 39V38H29V39H28Z" fill="#303189"/>
<path fill-rule="evenodd" clip-rule="evenodd" d="M28.9999 39V38H29.9999V39H28.9999Z" fill="#303189"/>
<path fill-rule="evenodd" clip-rule="evenodd" d="M33 39V38H34V39H33Z" fill="#303189"/>
<path fill-rule="evenodd" clip-rule="evenodd" d="M34 39V38H35V39H34Z" fill="#303189"/>
<path fill-rule="evenodd" clip-rule="evenodd" d="M35 39V38H36V39H35Z" fill="#303189"/>
<path fill-rule="evenodd" clip-rule="evenodd" d="M36 39V38H37V39H36Z" fill="#303189"/>
<path fill-rule="evenodd" clip-rule="evenodd" d="M15.9565 15.9565H11.0525V11.0525H15.9565V15.9565ZM15.9565 10.0016H11.0525H10.0016V11.0525V15.9565V17.0074H11.0525H15.9565H17.0073V15.9565V11.0525V10.0016H15.9565Z" fill="#303189"/>
<path fill-rule="evenodd" clip-rule="evenodd" d="M37.9745 15.9565H33.0705V11.0525H37.9745V15.9565ZM37.9745 10.0016H33.0705H32.0196V11.0525V15.9565V17.0074H33.0705H37.9745H39.0254V15.9565V11.0525V10.0016H37.9745Z" fill="#303189"/>
<path fill-rule="evenodd" clip-rule="evenodd" d="M15.9565 37.9745H11.0525V33.0705H15.9565V37.9745ZM15.9565 32.0197H11.0525H10.0016V33.0705V37.9745V39.0254H11.0525H15.9565H17.0073V37.9745V33.0705V32.0197H15.9565Z" fill="#303189"/>
<path fill-rule="evenodd" clip-rule="evenodd" d="M12 15V12H15V15H12Z" fill="#303189"/>
<path fill-rule="evenodd" clip-rule="evenodd" d="M34 15V12H37V15H34Z" fill="#303189"/>
<path fill-rule="evenodd" clip-rule="evenodd" d="M12 37V34H15V37H12Z" fill="#303189"/>
<path opacity="0.01" fill-rule="evenodd" clip-rule="evenodd" d="M0 48V0H48V48H0Z" fill="#303189"/>
</svg>
