<svg width="48" height="48" viewBox="0 0 48 48" fill="none" xmlns="http://www.w3.org/2000/svg">
<path opacity="0.01" fill-rule="evenodd" clip-rule="evenodd" d="M0 48V0H48V48H0Z" fill="white"/>
<path fill-rule="evenodd" clip-rule="evenodd" d="M20.9988 12.1263C20.9988 10.4695 22.342 9.12634 23.9988 9.12634C25.6557 9.12634 26.9988 10.4695 26.9988 12.1263C26.9988 13.7832 25.6557 15.1263 23.9988 15.1263C22.342 15.1263 20.9988 13.7832 20.9988 12.1263Z" fill="#303189"/>
<path fill-rule="evenodd" clip-rule="evenodd" d="M20.9988 23.9988C20.9988 22.3419 22.342 20.9988 23.9988 20.9988C25.6557 20.9988 26.9988 22.3419 26.9988 23.9988C26.9988 25.6556 25.6557 26.9988 23.9988 26.9988C22.342 26.9988 20.9988 25.6556 20.9988 23.9988Z" fill="#303189"/>
<path fill-rule="evenodd" clip-rule="evenodd" d="M20.9988 35.8612C20.9988 34.2043 22.342 32.8612 23.9988 32.8612C25.6557 32.8612 26.9988 34.2043 26.9988 35.8612C26.9988 37.518 25.6557 38.8612 23.9988 38.8612C22.342 38.8612 20.9988 37.518 20.9988 35.8612Z" fill="#303189"/>
</svg>
