<svg width="14"  height="13" viewBox="0 0 14 13" fill="none" xmlns="http://www.w3.org/2000/svg">
<path fill-rule="evenodd" clip-rule="evenodd" d="M4.3457 7.49899L6.30045 5.59397L1.46475 0.915065C0.401734 1.951 0.401734 3.65563 1.46475 4.69152L4.3457 7.49899Z" fill="#909090"/>
<path fill-rule="evenodd" clip-rule="evenodd" d="M9.01368 6.29291C10.0774 6.76102 11.5526 6.42675 12.6161 5.35703C13.9197 4.08682 14.1945 2.24822 13.1652 1.2787C12.1701 0.27588 10.2832 0.543583 8.9795 1.81383C7.88154 2.88353 7.53848 4.32091 8.01892 5.32373C6.50917 6.82806 1.32856 11.8755 1.32856 11.8755L2.28924 12.8114L7.02384 8.19842L11.7584 12.8114L12.7189 11.8755L7.98438 7.26246L9.01368 6.29291Z" fill="#909090"/>
</svg>
