<svg width="48" height="48" viewBox="0 0 48 48" fill="none" xmlns="http://www.w3.org/2000/svg">
<path opacity="0.01" fill-rule="evenodd" clip-rule="evenodd" d="M0 48V0H48V48H0Z" fill="white"/>
<path fill-rule="evenodd" clip-rule="evenodd" d="M26.0261 28.229C27.698 28.229 29.2709 27.578 30.4532 26.3957C31.6355 25.2134 32.2865 23.6406 32.2865 21.9739C32.2865 20.3021 31.6354 18.7292 30.4532 17.5521C29.2709 16.3698 27.698 15.7188 26.0261 15.7188C24.3543 15.7188 22.7814 16.3698 21.5991 17.5521C20.4168 18.7344 19.7658 20.3073 19.7658 21.9739C19.7658 23.6458 20.4168 25.2187 21.5991 26.3957C22.7814 27.578 24.3543 28.229 26.0261 28.229ZM14.2346 32.5571L19.797 26.9426C18.7085 25.578 18.0523 23.8489 18.0523 21.9687C18.0523 17.5677 21.62 14 26.0261 14C30.4323 14 34 17.5729 34 21.9739C34 26.3749 30.4323 29.9425 26.0261 29.9425C24.1199 29.9425 22.3751 29.2759 21.0002 28.1613L15.4742 33.7394C15.3075 33.9165 15.0784 34.005 14.8544 34.005C14.6409 34.005 14.4273 33.9269 14.2659 33.7706C13.9221 33.4425 13.9117 32.9008 14.2346 32.5571L14.2346 32.5571Z" fill="#303189"/>
</svg>
