<svg width="48" height="49" viewBox="0 0 48 49" fill="none" xmlns="http://www.w3.org/2000/svg">
<path opacity="0.01" fill-rule="evenodd" clip-rule="evenodd" d="M-5.05176e-05 48.5V0.5H48V48.5H-5.05176e-05Z" fill="white"/>
<path fill-rule="evenodd" clip-rule="evenodd" d="M29 27H26.8476C25.9804 27.3984 25.0156 27.625 24 27.625C22.9843 27.625 22.0234 27.3984 21.1523 27H19C16.2382 27 14 29.2383 14 32V32.625C14 33.6602 14.8398 34.5 15.875 34.5H32.125C33.1601 34.5 34 33.6602 34 32.625V32C34 29.2383 31.7617 27 29 27ZM24 25.75C27.1054 25.75 29.625 23.2305 29.625 20.125C29.625 17.0195 27.1054 14.5 24 14.5C20.8945 14.5 18.375 17.0195 18.375 20.125C18.375 23.2305 20.8945 25.75 24 25.75Z" fill="#303189"/>
</svg>
